<svg height="51" viewBox="0 0 49 51" width="49" xmlns="http://www.w3.org/2000/svg" xmlns:xlink="http://www.w3.org/1999/xlink"><defs><circle id="a" cx="24" cy="24" r="24"/><filter id="b" height="135.4%" width="135.4%" x="-17.7%" y="-17.7%"><feGaussianBlur in="SourceAlpha" result="shadowBlurInner1" stdDeviation="4"/><feOffset dx="0" dy="9" in="shadowBlurInner1" result="shadowOffsetInner1"/><feComposite in="shadowOffsetInner1" in2="SourceAlpha" k2="-1" k3="1" operator="arithmetic" result="shadowInnerInner1"/><feColorMatrix in="shadowInnerInner1" type="matrix" values="0 0 0 0 0.626381803   0 0 0 0 0.626381803   0 0 0 0 0.626381803  0 0 0 0.1 0"/></filter><circle id="c" cx="24" cy="24" r="18"/><filter id="d" height="161.2%" width="161.2%" x="-30.6%" y="-22.3%"><feMorphology in="SourceAlpha" operator="dilate" radius="0.525" result="shadowSpreadOuter1"/><feOffset dx="0" dy="3" in="shadowSpreadOuter1" result="shadowOffsetOuter1"/><feGaussianBlur in="shadowOffsetOuter1" result="shadowBlurOuter1" stdDeviation="3"/><feComposite in="shadowBlurOuter1" in2="SourceAlpha" operator="out" result="shadowBlurOuter1"/><feColorMatrix in="shadowBlurOuter1" type="matrix" values="0 0 0 0 0   0 0 0 0 0   0 0 0 0 0  0 0 0 0.2 0"/></filter></defs><g fill="none" fill-rule="evenodd" transform="matrix(-1 0 0 1 48 0)"><g opacity=".933482"><use fill="#f6f6f6" fill-rule="evenodd" xlink:href="#a"/><use fill="#000" filter="url(#b)" xlink:href="#a"/></g><g opacity=".933482"><use fill="#000" filter="url(#d)" xlink:href="#c"/><use fill="#fff" fill-rule="evenodd" stroke="#b8b8b8" stroke-width="1.05" xlink:href="#c"/></g><g stroke="#8f8f8f" transform="translate(17 16.5)"><path d="m2.15275382 3.375c-.05645788 0-.11281925.00466461-.16850896.01394623-.55838958.09306493-.93560974.62117315-.84254481 1.17956273l1.53333333 9.20000004c.08237378.4942426.50999364.856491 1.01105377.856491h6.62804415c.5010601 0 .92868-.3622484 1.0110538-.856491l1.5333333-9.20000004c.0092816-.05568971.0139462-.11205108.0139462-.16850896 0-.56609187-.4589081-1.025-1.025-1.025z" fill="#989898" stroke-width=".75"/><path d="m6.45306443.375c-.06075137 0-.12133409.0063928-.18074745.01907279-.46773546.09982406-.76598658.55992196-.66616252 1.02765741l.08370484.39220724c.10094601.47299251.51878043.81106256 1.00242494.81106256h.61568727c.48364451 0 .90147893-.33807005 1.00242495-.81106256l.08370483-.39220724c.01267999-.05941335.01907279-.11999608.01907279-.18074744 0-.47826907-.38771369-.86598276-.86598276-.86598276z" fill="#989898" stroke-width=".75" transform="matrix(-1 0 0 -1 14 3)"/><path d="m0 3h14" fill="#b9b3b3" stroke-linecap="round" stroke-linejoin="round" stroke-width="1.75"/></g></g></svg>