<svg height="51" viewBox="0 0 49 51" width="49" xmlns="http://www.w3.org/2000/svg" xmlns:xlink="http://www.w3.org/1999/xlink"><defs><circle id="a" cx="24" cy="24" r="24"/><filter id="b" height="135.4%" width="135.4%" x="-17.7%" y="-17.7%"><feGaussianBlur in="SourceAlpha" result="shadowBlurInner1" stdDeviation="4"/><feOffset dx="0" dy="9" in="shadowBlurInner1" result="shadowOffsetInner1"/><feComposite in="shadowOffsetInner1" in2="SourceAlpha" k2="-1" k3="1" operator="arithmetic" result="shadowInnerInner1"/><feColorMatrix in="shadowInnerInner1" type="matrix" values="0 0 0 0 0.626381803   0 0 0 0 0.626381803   0 0 0 0 0.626381803  0 0 0 0.1 0"/></filter><circle id="c" cx="24" cy="24" r="18"/><filter id="d" height="161.2%" width="161.2%" x="-30.6%" y="-22.3%"><feMorphology in="SourceAlpha" operator="dilate" radius="0.525" result="shadowSpreadOuter1"/><feOffset dx="0" dy="3" in="shadowSpreadOuter1" result="shadowOffsetOuter1"/><feGaussianBlur in="shadowOffsetOuter1" result="shadowBlurOuter1" stdDeviation="3"/><feComposite in="shadowBlurOuter1" in2="SourceAlpha" operator="out" result="shadowBlurOuter1"/><feColorMatrix in="shadowBlurOuter1" type="matrix" values="0 0 0 0 0   0 0 0 0 0   0 0 0 0 0  0 0 0 0.2 0"/></filter><path id="e" d="m17.177476 3.75605202-2.9335767-2.93358672c-1.0966635-1.09666727-2.8810884-1.09666727-3.9780332.00028125l-9.44201494 9.45234805c-.53124583.5312476-.82385116 1.2375739-.82385116 1.9888652 0 .7493225.2910233 1.4538558.81959726 1.9846112l2.83345174 2.9240242c.53476146.5318102 1.23233143.8223423 1.9733545.8273345.00653906.0000351.0129375.0000703.0194414.0000703.73388636 0 1.42769461-.2806532 1.95556545-.7915101l7.16585975-7.0395324c.2770663-.27218046 2.1356357-2.16049849 2.4102059-2.43513992 1.0966987-1.09666727 1.0966987-2.88109828 0-3.97776556z"/><mask id="f" fill="#fff"><use fill="#fff" fill-rule="evenodd" xlink:href="#e"/></mask></defs><g fill="none" fill-rule="evenodd" transform="matrix(-1 0 0 1 48 0)"><g opacity=".933482"><use fill="#f6f6f6" fill-rule="evenodd" xlink:href="#a"/><use fill="#000" filter="url(#b)" xlink:href="#a"/></g><g opacity=".933482"><use fill="#000" filter="url(#d)" xlink:href="#c"/><use fill="#fff" fill-rule="evenodd" stroke="#b8b8b8" stroke-width="1.05" xlink:href="#c"/></g><g fill-rule="nonzero" transform="translate(15 15)"><use fill="#989898" transform="matrix(-1 0 0 1 18 0)" xlink:href="#e"/><path d="m4.705347 12.70427h10.5v1.5h-10.5z" fill="#fff" mask="url(#f)" transform="matrix(.7193398 -.69465837 .69465837 .7193398 -6.552052 10.691643)"/></g></g></svg>