<svg height="51" viewBox="0 0 49 51" width="49" xmlns="http://www.w3.org/2000/svg" xmlns:xlink="http://www.w3.org/1999/xlink"><defs><circle id="a" cx="24" cy="24" r="24"/><filter id="b" height="135.4%" width="135.4%" x="-17.7%" y="-17.7%"><feGaussianBlur in="SourceAlpha" result="shadowBlurInner1" stdDeviation="4"/><feOffset dx="0" dy="9" in="shadowBlurInner1" result="shadowOffsetInner1"/><feComposite in="shadowOffsetInner1" in2="SourceAlpha" k2="-1" k3="1" operator="arithmetic" result="shadowInnerInner1"/><feColorMatrix in="shadowInnerInner1" type="matrix" values="0 0 0 0 0.626381803   0 0 0 0 0.626381803   0 0 0 0 0.626381803  0 0 0 0.1 0"/></filter><circle id="c" cx="24" cy="24" r="18"/><filter id="d" height="161.2%" width="161.2%" x="-30.6%" y="-22.3%"><feMorphology in="SourceAlpha" operator="dilate" radius="0.525" result="shadowSpreadOuter1"/><feOffset dx="0" dy="3" in="shadowSpreadOuter1" result="shadowOffsetOuter1"/><feGaussianBlur in="shadowOffsetOuter1" result="shadowBlurOuter1" stdDeviation="3"/><feComposite in="shadowBlurOuter1" in2="SourceAlpha" operator="out" result="shadowBlurOuter1"/><feColorMatrix in="shadowBlurOuter1" type="matrix" values="0 0 0 0 0   0 0 0 0 0   0 0 0 0 0  0 0 0 0.2 0"/></filter></defs><g fill="none" fill-rule="evenodd" transform="matrix(-1 0 0 1 48 0)"><g opacity=".933482"><use fill="#f6f6f6" fill-rule="evenodd" xlink:href="#a"/><use fill="#000" filter="url(#b)" xlink:href="#a"/></g><g opacity=".933482"><use fill="#000" filter="url(#d)" xlink:href="#c"/><use fill="#fff" fill-rule="evenodd" stroke="#b8b8b8" stroke-width="1.05" xlink:href="#c"/></g><g transform="matrix(-1 0 0 1 31.5 16.5)"><path d="m14.4826599 1.3446188-.8354034-.83194636c-.6874077-.68458254-1.8047425-.68335207-2.4903597.00243165l-1.81046626 1.80800456-4.21074295 1.01833374c-1.20947247.29250106-2.18391894 1.21298289-2.54307694 2.40220592l-2.56761568 8.50125129c-.0624329.2067488-.00589986.4310172.14714442.5836252.11171586.1114164.26161941.1714752.41501592.1714752.05670916 0 .11391731-.0082032.16983395-.0250782l8.48700083-2.5609663c1.19230121-.3597962 2.11400111-1.3341845 2.40535471-2.54288998l.3891857-1.61441011c.0681085-.28254648-.0415633-2.33921741.1141227-2.33921741.1558622-.0000293.3051787-.06181663.4152508-.1717389l1.9175737-1.91496784c.3323298-.33240354.5150495-.77402622.5145212-1.24362752-.0005871-.469572-.1842754-.91084312-.517339-1.24248494z" fill="#989898" fill-rule="nonzero" stroke="#8f8f8f" stroke-width=".75"/><circle cx="6" cy="9" fill="#fff" r="1.5"/></g></g></svg>