<svg height="51" viewBox="0 0 49 51" width="49" xmlns="http://www.w3.org/2000/svg" xmlns:xlink="http://www.w3.org/1999/xlink"><defs><circle id="a" cx="24" cy="24" r="24"/><filter id="b" height="135.4%" width="135.4%" x="-17.7%" y="-17.7%"><feGaussianBlur in="SourceAlpha" result="shadowBlurInner1" stdDeviation="4"/><feOffset dx="0" dy="9" in="shadowBlurInner1" result="shadowOffsetInner1"/><feComposite in="shadowOffsetInner1" in2="SourceAlpha" k2="-1" k3="1" operator="arithmetic" result="shadowInnerInner1"/><feColorMatrix in="shadowInnerInner1" type="matrix" values="0 0 0 0 0.626381803   0 0 0 0 0.626381803   0 0 0 0 0.626381803  0 0 0 0.1 0"/></filter><circle id="c" cx="24" cy="24" r="18"/><filter id="d" height="161.2%" width="161.2%" x="-30.6%" y="-22.3%"><feMorphology in="SourceAlpha" operator="dilate" radius="0.525" result="shadowSpreadOuter1"/><feOffset dx="0" dy="3" in="shadowSpreadOuter1" result="shadowOffsetOuter1"/><feGaussianBlur in="shadowOffsetOuter1" result="shadowBlurOuter1" stdDeviation="3"/><feComposite in="shadowBlurOuter1" in2="SourceAlpha" operator="out" result="shadowBlurOuter1"/><feColorMatrix in="shadowBlurOuter1" type="matrix" values="0 0 0 0 0   0 0 0 0 0   0 0 0 0 0  0 0 0 0.2 0"/></filter></defs><g fill="none" fill-rule="evenodd" transform="matrix(-1 0 0 1 48 0)"><g opacity=".933482"><use fill="#f6f6f6" fill-rule="evenodd" xlink:href="#a"/><use fill="#000" filter="url(#b)" xlink:href="#a"/></g><g opacity=".933482"><use fill="#000" filter="url(#d)" xlink:href="#c"/><use fill="#fff" fill-rule="evenodd" stroke="#b8b8b8" stroke-width="1.05" xlink:href="#c"/></g><path d="m8.72535809 17.5118005c-.00032731-.0002207-.00066631-.0004474-.00102458-.000686-.00056867-.0003763-.00005255-.0000321.00097968.0006562.000015.00001.00002996.0000199.0000449.0000298zm.01124047.0079026c.00522558.0038727.01372183.0102876.03003337.0226033-.00408052-.0031525-.00408052-.0031525.00670597.0043622.00408802.0027674.00408802.0027674.01175136.007961.01412117.0097178.02950077.018972.04321433.0262022.01893956.0096228.01893956.0096228.02394795.0120292.01202204.0050075.02778036.0101704.05007017.0164356.01756452.0048834.01756452.0048834.02789859.0079667.00145241.0004175.00266958.0007674.00363207.0010473.02433585.0044878.04663889.0066894.06614763.0066894.01909488 0 .04153737-.002397.0699417-.0077835.00100835-.0002982.00239606-.0007104.00507593-.0015065.00703416-.0020808.00703416-.0020808.02082776-.0059441.02255534-.0060085.03929637-.0115581.04831444-.0154151.0050931-.001966.00962657-.003716.01368149-.0052789.00364091-.0021162.00757172-.0043993.01182247-.0068681.03651076-.0182732.06193884-.0344793.08140585-.0513773l2.29817266-1.992018c.167303-.1452249.1876158-.4040199.0442801-.5753253-.1400946-.167432-.3829204-.1872826-.5460147-.045711l-.4182257.3630345-.2173733-.6254398-.0207837-.1231088v-2.4571423l.3814091.0065196 1.143578.0197199 2.1160129-.0279037c.0091819-.0001139.0091819-.0001139.0181435-.0006965l.3512284-.0261524c1.8094519-.0878766 3.2235031-1.2859229 3.2235031-2.99840915 0-.75621855-.2542008-1.47504439-.7536976-2.1062415-.4810228-.7005125-1.2368579-1.17531959-2.1004341-1.32205761l-.333519-.05667123.0221423-.33757409c.0069308-.10566533.0104459-.20941184.0104459-.31164912 0-2.50472765-1.9750414-4.539-4.396125-4.539-2.16888243 0-4.01318807 1.6435068-4.34348414 3.83935994l-.05700684.3789892-.37765867-.06524202c-.25188171-.04351355-.50785498-.06536518-.76753785-.06536518-2.29567896 0-4.153125 1.72498602-4.153125 3.83003225 0 2.12335851 1.22773848 3.56663191 3.15159835 3.74100581l.36246797.017027 2.10994606-.0034342 1.61042512.0263603v2.4498153l-.02007353.1210463-.2137706.6268085-.42111486-.3677053c-.16303485-.1423573-.4061533-.1234833-.54665795.0428651-.14383679.1705967-.12441384.4299162.04213918.5756007zm.46703874.0532908c.00052375-.0001385.00106561-.0002816.00162898-.0004303-.00040324.0000658-.00074198.000121-.00119839.0002358zm-.09801748.0486404c-.0032111.0021441-.00446924.0033481-.00640352.0051991.00342865-.0029026.00601587-.0050929.00880289-.0072305z" fill="#989898" stroke="#8f8f8f" stroke-width=".75" transform="translate(15 15)"/></g></svg>