<svg height="51" viewBox="0 0 49 51" width="49" xmlns="http://www.w3.org/2000/svg" xmlns:xlink="http://www.w3.org/1999/xlink"><defs><circle id="a" cx="24" cy="24" r="24"/><filter id="b" height="135.4%" width="135.4%" x="-17.7%" y="-17.7%"><feGaussianBlur in="SourceAlpha" result="shadowBlurInner1" stdDeviation="4"/><feOffset dx="0" dy="9" in="shadowBlurInner1" result="shadowOffsetInner1"/><feComposite in="shadowOffsetInner1" in2="SourceAlpha" k2="-1" k3="1" operator="arithmetic" result="shadowInnerInner1"/><feColorMatrix in="shadowInnerInner1" type="matrix" values="0 0 0 0 0.626381803   0 0 0 0 0.626381803   0 0 0 0 0.626381803  0 0 0 0.1 0"/></filter><circle id="c" cx="24" cy="24" r="18"/><filter id="d" height="161.2%" width="161.2%" x="-30.6%" y="-22.3%"><feMorphology in="SourceAlpha" operator="dilate" radius="0.525" result="shadowSpreadOuter1"/><feOffset dx="0" dy="3" in="shadowSpreadOuter1" result="shadowOffsetOuter1"/><feGaussianBlur in="shadowOffsetOuter1" result="shadowBlurOuter1" stdDeviation="3"/><feComposite in="shadowBlurOuter1" in2="SourceAlpha" operator="out" result="shadowBlurOuter1"/><feColorMatrix in="shadowBlurOuter1" type="matrix" values="0 0 0 0 0   0 0 0 0 0   0 0 0 0 0  0 0 0 0.2 0"/></filter></defs><g fill="none" fill-rule="evenodd" transform="matrix(-1 0 0 1 48 0)"><g opacity=".933482"><use fill="#f6f6f6" fill-rule="evenodd" xlink:href="#a"/><use fill="#000" filter="url(#b)" xlink:href="#a"/></g><g opacity=".933482"><use fill="#000" filter="url(#d)" xlink:href="#c"/><use fill="#fff" fill-rule="evenodd" stroke="#b8b8b8" stroke-width="1.05" xlink:href="#c"/></g><path d="m22.2528967 20.2180098 1.012349.4536697c.588414.2636892.8539698.9554858.5931355 1.5451709-.2608342.5896851-.9492859.8539569-1.5376999.5902677l-3.1962533-1.4323548c-.5884139-.2636893-.8539698-.9554859-.5931355-1.545171l1.4168466-3.2031579c.2608343-.5896851.949286-.8539569 1.5377-.5902677.5884139.2636892.8539698.9554858.5931355 1.5451709l-.1078391.2437988c.4039975-.0766682.8177464-.1159448 1.2369446-.1159448 3.6450794 0 6.6 2.9549207 6.6 6.6 0 3.6450794-2.9549206 6.6-6.6 6.6-1.2308796 0-2.4149132-.3386177-3.4432391-.9684562-.7820665-.4790072-1.4572094-1.1166779-1.9803406-1.8697423-.3781079-.5442986-.2433837-1.2920568.3009149-1.6701647s1.2920568-.2433838 1.6701647.3009149c.3335692.4801836.764426.8871267 1.2627939 1.1923717.6536785.400371 1.4044328.6150766 2.1897062.6150766 2.319596 0 4.2-1.880404 4.2-4.2 0-2.3195959-1.880404-4.2-4.2-4.2-.3258343 0-.6457218.0369687-.9551834.1088182z" fill="#989898" fill-rule="nonzero" stroke="#8f8f8f" stroke-width=".75" transform="matrix(-1 0 0 1 47.378014 0)"/></g></svg>